<?xml version="1.0" encoding="UTF-8"?>
<svg id="Layer_2" data-name="Layer 2" xmlns="http://www.w3.org/2000/svg" viewBox="0 0 116 50">
  <defs>
    <style>
      .cls-1 {
        fill: #fff;
        stroke-width: 0px;
      }
    </style>
  </defs>
  <g id="Layer_1-2" data-name="Layer 1">
    <g>
      <path class="cls-1" d="m10.93,44.2c-.04-.82-.08-1.47-.12-2.08-.25-4.5-.33-8.95,0-13.45.16-1.96.33-3.92.7-5.84.29-1.51.82-3.02,1.23-4.54.12-.49.45-.57.9-.37,1.36.57,2.43,1.55,3.29,2.7,1.15,1.55,1.89,3.31,2.14,5.27.04.16.12.33.21.53,1.4-1.63,1.36-3.51,0-5.15-1.19-1.39-2.67-2.37-4.36-3.07-1.6-.69-2.84-2.13-2.3-4.17.04-.2-.08-.49-.21-.69-.95-1.23-1.36-2.7-1.69-4.17-.04-.12-.25-1.27-.25-1.39.25.65.29,1.55,1.36,2.29.62.41,1.23.57,1.93.45,1.56-.29,3.12-.49,4.69-.16.66.12,1.23.53,1.85.82.29.12.62.29.9.33,3.86.45,7.73.86,11.59,1.27.58.08,1.77.25,1.77.29-.58.08-1.11.16-1.69.2-3.7.45-7.4.86-11.1,1.35-.41.04-.82.2-1.19.37-1.15.49-1.27,1.72-.25,2.45,1.97,1.47,3.29,3.31,3.66,5.76.37,2.53-.21,4.9-1.69,6.95-.82,1.14-1.85,2.13-2.75,3.23-.25.33-.41.78-.53,1.19-.37,1.31-.62,2.66-1.11,3.88-.66,1.63-1.48,3.23-2.3,4.82-1.27,2.41-4.77,6.7-4.85,6.74,0-.16-.04-.29-.04-.45,0-2.33.37-4.58.99-6.83.7-2.49,1.73-4.82,3.41-6.74.74-.86,1.64-1.55,2.55-2.29.45-.37.7-.65.66-1.27,0-1.1.08-2.21.08-3.31,0-.2-.04-.37-.04-.74-.7.61-1.27,1.1-1.81,1.68-1.85,1.88-3.49,3.88-4.4,6.42-.33.86-.49,1.8-.62,2.74-.16,1.47-.53,4.7-.62,4.99Zm8.51-12.14s.08.04.16.08c.53-.61,1.07-1.19,1.56-1.84,1.77-2.37,2.55-4.99,1.73-7.97-.53-1.84-1.73-3.19-3.25-4.29-1.03-.74-1.19-2.41-.29-3.23.49-.45,1.19-.78,1.85-.98.82-.25,1.73-.29,2.59-.37.66-.08,1.32-.16,1.97-.25v-.16c-.82-.08-1.69-.16-2.51-.29-.95-.12-1.89-.2-2.8-.37-.66-.12-1.32-.41-2.01-.49-1.89-.25-3.45.41-4.56,1.96-.37.49-.45,1.06-.29,1.72.29,1.1,1.15,1.55,2.06,1.96,1.6.74,3.08,1.63,4.28,3.02,1.81,2.13,2.1,4.29.29,6.42-.62.74-.7,1.35-.7,2.13v.29c-.08.86-.08,1.76-.08,2.66Zm-7.81,3.15c.49-.86.9-1.55,1.32-2.21,1.4-2.13,3.12-3.92,5.1-5.52.16-.12.33-.37.29-.53-.37-1.35-.66-2.74-1.19-4.05-.62-1.55-1.69-2.78-3.12-3.68-.41-.25-.58-.2-.7.29-.25.98-.58,1.92-.7,2.86-.33,2.04-.58,4.09-.82,6.17-.12,1.23-.16,2.45-.16,3.72-.04.9,0,1.84,0,2.94Zm.33,11.81c2.88-3.68,5.1-7.68,6.08-12.34-4.11,3.11-5.51,7.52-6.08,12.34Z"/>
      <path class="cls-1" d="m39.46,19.68c-.08,9.36-6.7,17.33-15.91,19.17-.7.16-1.44.16-2.18.29-.45.08-.53-.29-.58-.57,0-.12.33-.33.49-.37,5.55-.49,9.99-2.98,13.36-7.36,1.89-2.45,3.04-5.27,3.58-8.34.45-2.9.29-5.8-.7-8.54-2.55-7.07-7.52-11.53-15.09-12.67C15.82.26,10.23,2.43,5.71,7.33c-1.97,2.17-3.29,4.7-4.11,7.52-.74,2.62-.86,5.35-.37,7.97.95,4.99,3.49,9.03,7.69,12.02.12.08.29.25.29.37,0,.2-.08.45-.25.57-.08.08-.37,0-.49-.12-2.3-1.59-4.15-3.6-5.63-5.97-1.23-1.96-2.06-4.13-2.47-6.38-.41-2.08-.49-4.21-.16-6.38.66-4.29,2.43-7.97,5.47-11.03C8.51,3,12,1.16,15.99.39c4.52-.9,8.8-.2,12.87,1.88,3.7,1.92,6.49,4.74,8.39,8.46,1.03,2,1.73,4.09,1.93,6.29.08.98.16,1.8.29,2.66Z"/>
      <path class="cls-1" d="m59.44,12.36l-6.91,10.3h6.91v2.57h-10.48v-2.37l6.86-10.3h-6.86v-2.57h10.48v2.37Z"/>
      <path class="cls-1" d="m71.4,12.49h-5.84v3.84h5.18v2.41h-5.18v4.05h5.84v2.49h-8.92v-15.29h8.92v2.49Z"/>
      <path class="cls-1" d="m83.53,12.49h-5.84v3.84h5.18v2.41h-5.18v4.05h5.84v2.49h-8.92v-15.29h8.92v2.49Z"/>
      <path class="cls-1" d="m98.49,24.01l3.54,3.92h-3.82l-2.34-2.78c-.62.16-1.32.25-1.97.25-4.32,0-7.85-3.23-7.85-7.81s3.54-7.81,7.85-7.81,7.85,3.23,7.85,7.81c0,2.78-1.27,5.07-3.25,6.42Zm-4.6-1.31c2.75,0,4.69-2,4.69-5.11s-1.93-5.07-4.69-5.07-4.69,1.96-4.69,5.07,1.89,5.11,4.69,5.11Z"/>
      <path class="cls-1" d="m110.29,9.99c3.7,0,5.55,2.13,5.55,4.66,0,1.84-1.03,3.72-3.49,4.41l3.66,6.17h-3.58l-3.37-5.93h-1.44v5.93h-3.08v-15.24h5.76Zm-.12,2.53h-2.59v4.5h2.59c1.73,0,2.47-.9,2.47-2.29s-.74-2.21-2.47-2.21Z"/>
      <path class="cls-1" d="m50.48,31.74c.7,0,1.07.41,1.07.9,0,.37-.21.74-.66.86l.7,1.19h-.7l-.66-1.14h-.29v1.14h-.58v-2.94h1.11Zm-.04.49h-.49v.86h.49c.33,0,.49-.16.49-.45,0-.25-.16-.41-.49-.41Z"/>
      <path class="cls-1" d="m54.51,32.23h-1.11v.74h.99v.45h-.99v.78h1.11v.49h-1.73v-2.94h1.73v.49Z"/>
      <path class="cls-1" d="m58.33,31.74v2.94h-.58l-1.36-2v2h-.58v-2.94h.58l1.36,2.04v-2.04h.58Z"/>
      <path class="cls-1" d="m61,34.72c-.82,0-1.52-.61-1.52-1.51s.7-1.51,1.52-1.51c.86,0,1.52.61,1.52,1.51-.04.9-.7,1.51-1.52,1.51Zm0-.53c.53,0,.9-.37.9-.98s-.37-.98-.9-.98-.9.37-.9.98.37.98.9.98Z"/>
      <path class="cls-1" d="m65.69,31.74h.62l-1.07,2.94h-.74l-1.07-2.94h.62l.82,2.33.82-2.33Z"/>
      <path class="cls-1" d="m69.22,34.11h-1.19l-.21.57h-.62l1.07-2.94h.7l1.07,2.94h-.62l-.21-.57Zm-.62-1.68l-.41,1.23h.86l-.45-1.23Z"/>
      <path class="cls-1" d="m70.99,31.74h2.18v.49h-.78v2.45h-.58v-2.45h-.78v-.49h-.04Z"/>
      <path class="cls-1" d="m74.32,31.74h.58v2.94h-.58v-2.94Z"/>
      <path class="cls-1" d="m78.76,31.74v2.94h-.58l-1.36-2v2h-.58v-2.94h.58l1.36,2.04v-2.04h.58Z"/>
      <path class="cls-1" d="m82.79,32.63h-.7c-.12-.25-.37-.37-.7-.37-.53,0-.9.37-.9.98s.37.98.9.98c.45,0,.74-.25.82-.69h-1.03v-.45h1.6v.53c-.12.61-.66,1.14-1.44,1.14-.86,0-1.52-.61-1.52-1.51s.66-1.51,1.52-1.51c.74-.04,1.23.29,1.44.9Z"/>
      <path class="cls-1" d="m85.58,31.74h2.18v.49h-.78v2.45h-.58v-2.45h-.78v-.49h-.04Z"/>
      <path class="cls-1" d="m90.76,33.41h-1.27v1.27h-.58v-2.94h.58v1.23h1.27v-1.23h.58v2.94h-.58v-1.27Z"/>
      <path class="cls-1" d="m94.38,32.23h-1.11v.74h.99v.45h-.99v.78h1.11v.49h-1.73v-2.94h1.73v.49Z"/>
      <path class="cls-1" d="m97.38,31.74h1.81v.49h-1.23v.74h.95v.45h-.95v1.23h-.58v-2.9Z"/>
      <path class="cls-1" d="m100.34,31.74h.58v1.84c0,.41.21.61.62.61.37,0,.62-.2.62-.61v-1.84h.62v1.8c0,.78-.57,1.14-1.19,1.14s-1.19-.37-1.19-1.14v-1.8h-.04Z"/>
      <path class="cls-1" d="m103.87,31.74h2.18v.49h-.78v2.45h-.58v-2.45h-.78v-.49h-.04Z"/>
      <path class="cls-1" d="m107.16,31.74h.58v1.84c0,.41.21.61.62.61.37,0,.62-.2.62-.61v-1.84h.62v1.8c0,.78-.57,1.14-1.19,1.14s-1.19-.37-1.19-1.14v-1.8h-.04Z"/>
      <path class="cls-1" d="m111.97,31.74c.7,0,1.07.41,1.07.9,0,.37-.21.74-.66.86l.7,1.19h-.7l-.66-1.14h-.29v1.14h-.58v-2.94h1.11Zm-.04.49h-.49v.86h.49c.33,0,.49-.16.49-.45,0-.25-.16-.41-.49-.41Z"/>
      <path class="cls-1" d="m116,32.23h-1.11v.74h.99v.45h-.99v.78h1.11v.49h-1.73v-2.94h1.73v.49Z"/>
    </g>
  </g>
</svg>