<svg width="61" height="60" viewBox="0 0 61 60" fill="none" xmlns="http://www.w3.org/2000/svg">
<g clip-path="url(#clip0_126_484)">
<path fill-rule="evenodd" clip-rule="evenodd" d="M37.959 35.1769C37.6444 36.045 36.1347 36.8362 35.4084 36.9431C34.7584 37.0387 33.9349 37.0781 33.0294 36.7969C32.4804 36.6244 31.777 36.3956 30.8772 36.0131C27.0876 34.4044 24.6114 30.6525 24.4227 30.405C24.234 30.1575 22.8805 28.3912 22.8805 26.5631C22.8805 24.735 23.8565 23.835 24.2035 23.4637C24.5485 23.0925 24.9583 22.9987 25.21 22.9987C25.4616 22.9987 25.7132 23.0006 25.9343 23.0119C26.1669 23.0231 26.4776 22.9256 26.7845 23.6494C27.099 24.3937 27.8539 26.2219 27.9492 26.4075C28.0426 26.5931 28.1055 26.8106 27.9797 27.0581C27.8539 27.3056 27.791 27.4612 27.6023 27.6787C27.4136 27.8944 27.2058 28.1625 27.0361 28.3294C26.8474 28.5131 26.6492 28.7156 26.8703 29.0869C27.0914 29.4581 27.8482 30.675 28.971 31.6594C30.414 32.925 31.6321 33.3169 32.0095 33.5044C32.387 33.69 32.6081 33.6581 32.8273 33.4106C33.0485 33.1631 33.7728 32.3269 34.0245 31.9537C34.2761 31.5825 34.5277 31.6444 34.8746 31.7681C35.2197 31.8919 37.0783 32.79 37.4557 32.9775C37.8331 33.1631 38.0848 33.255 38.1801 33.4106C38.2735 33.5662 38.2735 34.3087 37.959 35.1769ZM30.5684 17.5106C23.6373 17.5106 17.9986 23.0531 17.9967 29.865C17.9967 32.1994 18.6601 34.4737 19.9182 36.4406L20.2175 36.9075L18.9479 41.4675L23.704 40.2412L24.1615 40.5075C26.0906 41.6344 28.3019 42.2306 30.557 42.2306L30.5627 42.2306C37.4881 42.2306 43.1249 36.6881 43.1287 29.8744C43.1287 26.5725 41.8248 23.4694 39.4515 21.1331C37.0783 18.7987 33.9234 17.5106 30.5684 17.5106Z" fill="url(#paint0_linear_126_484)"/>
<path fill-rule="evenodd" clip-rule="evenodd" d="M30.5629 44.7412L30.5572 44.7412C28.0257 44.7412 25.5399 44.1169 23.3325 42.9319L15.3167 45L17.4632 37.2956C16.1402 35.0419 15.4425 32.4844 15.4444 29.8631C15.4483 21.6675 22.2288 15 30.5629 15C34.6061 15 38.4033 16.5488 41.257 19.3594C44.1106 22.1681 45.6833 25.9031 45.6814 29.8762C45.6776 38.0719 38.8951 44.7412 30.5629 44.7412ZM30.5 6.26326e-08C13.6545 2.80398e-08 -2.75802e-08 13.4306 -6.16059e-08 30C-9.56277e-08 46.5675 13.6545 60 30.5 60C47.3436 60 61 46.5675 61 30C61 13.4306 47.3436 9.72215e-08 30.5 6.26326e-08Z" fill="url(#paint1_linear_126_484)"/>
</g>
<defs>
<linearGradient id="paint0_linear_126_484" x1="30.5627" y1="17.5106" x2="30.5627" y2="42.2306" gradientUnits="userSpaceOnUse">
<stop stopColor="#DBB24B"/>
<stop offset="1" stopColor="#6A4D03"/>
</linearGradient>
<linearGradient id="paint1_linear_126_484" x1="30.5" y1="6.26326e-08" x2="30.5" y2="60" gradientUnits="userSpaceOnUse">
<stop stopColor="#DBB24B"/>
<stop offset="1" stopColor="#6A4D03"/>
</linearGradient>
<clipPath id="clip0_126_484">
<rect width="61" height="60" fill="white"/>
</clipPath>
</defs>
</svg>
